{
	"asset":{
		"generator":"Khronos glTF Blender I/O v4.4.56",
		"version":"2.0"
	},
	"extensionsUsed":[
		"KHR_materials_transmission",
		"KHR_materials_specular"
	],
	"scene":0,
	"scenes":[
		{
			"name":"Scene",
			"nodes":[
				0,
				1,
				2,
				3,
				4,
				5,
				6,
				7,
				8,
				9,
				10,
				11,
				12,
				13
			]
		}
	],
	"nodes":[
		{
			"mesh":0,
			"name":"Hedra001",
			"rotation":[
				0.70710688829422,
				0,
				0,
				0.7071066498756409
			]
		},
		{
			"mesh":1,
			"name":"model",
			"rotation":[
				0.70710688829422,
				0,
				0,
				0.7071066498756409
			]
		},
		{
			"mesh":2,
			"name":"Sphere001",
			"rotation":[
				0.70710688829422,
				0,
				0,
				0.7071066498756409
			]
		},
		{
			"mesh":3,
			"name":"Sphere002",
			"rotation":[
				0.70710688829422,
				0,
				0,
				0.7071066498756409
			]
		},
		{
			"mesh":4,
			"name":"Sphere003",
			"rotation":[
				0.70710688829422,
				0,
				0,
				0.7071066498756409
			]
		},
		{
			"mesh":5,
			"name":"TextPlus002",
			"rotation":[
				0.70710688829422,
				0,
				0,
				0.7071066498756409
			]
		},
		{
			"mesh":6,
			"name":"TextPlus003",
			"rotation":[
				0.70710688829422,
				0,
				0,
				0.7071066498756409
			]
		},
		{
			"mesh":7,
			"name":"TextPlus004",
			"rotation":[
				0.70710688829422,
				0,
				0,
				0.7071066498756409
			]
		},
		{
			"mesh":8,
			"name":"Torus001",
			"rotation":[
				0.70710688829422,
				0,
				0,
				0.7071066498756409
			]
		},
		{
			"mesh":9,
			"name":"Torus003",
			"rotation":[
				0.70710688829422,
				0,
				0,
				0.7071066498756409
			]
		},
		{
			"mesh":10,
			"name":"Torus004",
			"rotation":[
				0.70710688829422,
				0,
				0,
				0.7071066498756409
			]
		},
		{
			"mesh":11,
			"name":"Torus005",
			"rotation":[
				0.70710688829422,
				0,
				0,
				0.7071066498756409
			]
		},
		{
			"mesh":12,
			"name":"Torus_Knot001",
			"rotation":[
				0.70710688829422,
				0,
				0,
				0.7071066498756409
			]
		},
		{
			"mesh":13,
			"name":"Tube001",
			"rotation":[
				0.70710688829422,
				0,
				0,
				0.7071066498756409
			]
		}
	],
	"materials":[
		{
			"doubleSided":true,
			"extensions":{
				"KHR_materials_transmission":{
					"transmissionFactor":1
				},
				"KHR_materials_specular":{
					"specularFactor":0.699999988079071
				}
			},
			"name":"wire_228153184",
			"pbrMetallicRoughness":{
				"baseColorFactor":[
					0.89410001039505,
					0.6000000238418579,
					0.7215999960899353,
					1
				],
				"metallicFactor":0,
				"roughnessFactor":0.8211145401000977
			}
		},
		{
			"doubleSided":true,
			"extensions":{
				"KHR_materials_transmission":{
					"transmissionFactor":1
				},
				"KHR_materials_specular":{
					"specularFactor":0.699999988079071
				}
			},
			"name":"wire_224198087",
			"pbrMetallicRoughness":{
				"baseColorFactor":[
					0.8784000277519226,
					0.7764999866485596,
					0.34119999408721924,
					1
				],
				"metallicFactor":0,
				"roughnessFactor":0.8211145401000977
			}
		},
		{
			"doubleSided":true,
			"extensions":{
				"KHR_materials_transmission":{
					"transmissionFactor":1
				},
				"KHR_materials_specular":{
					"specularFactor":0.699999988079071
				}
			},
			"name":"wire_255255255",
			"pbrMetallicRoughness":{
				"metallicFactor":0,
				"roughnessFactor":0.8211145401000977
			}
		},
		{
			"doubleSided":true,
			"extensions":{
				"KHR_materials_transmission":{
					"transmissionFactor":1
				},
				"KHR_materials_specular":{
					"specularFactor":0.699999988079071
				}
			},
			"name":"wire_225087143",
			"pbrMetallicRoughness":{
				"baseColorFactor":[
					0.8823999762535095,
					0.34119999408721924,
					0.5608000159263611,
					1
				],
				"metallicFactor":0,
				"roughnessFactor":0.8211145401000977
			}
		},
		{
			"doubleSided":true,
			"extensions":{
				"KHR_materials_transmission":{
					"transmissionFactor":1
				},
				"KHR_materials_specular":{
					"specularFactor":0.699999988079071
				}
			},
			"name":"wire_061135006",
			"pbrMetallicRoughness":{
				"baseColorFactor":[
					0.23919999599456787,
					0.5293999910354614,
					0.023499999195337296,
					1
				],
				"metallicFactor":0,
				"roughnessFactor":0.8211145401000977
			}
		},
		{
			"doubleSided":true,
			"extensions":{
				"KHR_materials_transmission":{
					"transmissionFactor":1
				},
				"KHR_materials_specular":{
					"specularFactor":0.699999988079071
				}
			},
			"name":"wire_177027088",
			"pbrMetallicRoughness":{
				"baseColorFactor":[
					0.694100022315979,
					0.10589999705553055,
					0.3450999855995178,
					1
				],
				"metallicFactor":0,
				"roughnessFactor":0.8211145401000977
			}
		},
		{
			"doubleSided":true,
			"extensions":{
				"KHR_materials_transmission":{
					"transmissionFactor":1
				},
				"KHR_materials_specular":{
					"specularFactor":0.699999988079071
				}
			},
			"name":"wire_008008136",
			"pbrMetallicRoughness":{
				"baseColorFactor":[
					0.03139999881386757,
					0.03139999881386757,
					0.53329998254776,
					1
				],
				"metallicFactor":0,
				"roughnessFactor":0.8211145401000977
			}
		},
		{
			"doubleSided":true,
			"extensions":{
				"KHR_materials_transmission":{
					"transmissionFactor":1
				},
				"KHR_materials_specular":{
					"specularFactor":0.699999988079071
				}
			},
			"name":"wire_177028149",
			"pbrMetallicRoughness":{
				"baseColorFactor":[
					0.694100022315979,
					0.10980000346899033,
					0.5842999815940857,
					1
				],
				"metallicFactor":0,
				"roughnessFactor":0.8211145401000977
			}
		},
		{
			"doubleSided":true,
			"extensions":{
				"KHR_materials_transmission":{
					"transmissionFactor":1
				},
				"KHR_materials_specular":{
					"specularFactor":0.699999988079071
				}
			},
			"name":"wire_143225087",
			"pbrMetallicRoughness":{
				"baseColorFactor":[
					0.5608000159263611,
					0.8823999762535095,
					0.34119999408721924,
					1
				],
				"metallicFactor":0,
				"roughnessFactor":0.8211145401000977
			}
		}
	],
	"meshes":[
		{
			"name":"Hedra001",
			"primitives":[
				{
					"attributes":{
						"POSITION":0,
						"NORMAL":1,
						"TEXCOORD_0":2
					},
					"indices":3,
					"material":0
				}
			]
		},
		{
			"name":"model",
			"primitives":[
				{
					"attributes":{
						"POSITION":4,
						"NORMAL":5,
						"TEXCOORD_0":6
					},
					"indices":7,
					"material":1
				}
			]
		},
		{
			"name":"Sphere001",
			"primitives":[
				{
					"attributes":{
						"POSITION":8,
						"NORMAL":9,
						"TEXCOORD_0":10
					},
					"indices":11,
					"material":2
				}
			]
		},
		{
			"name":"Sphere002",
			"primitives":[
				{
					"attributes":{
						"POSITION":12,
						"NORMAL":13,
						"TEXCOORD_0":14
					},
					"indices":11,
					"material":3
				}
			]
		},
		{
			"name":"Sphere003",
			"primitives":[
				{
					"attributes":{
						"POSITION":15,
						"NORMAL":16,
						"TEXCOORD_0":17
					},
					"indices":11,
					"material":4
				}
			]
		},
		{
			"name":"TextPlus002",
			"primitives":[
				{
					"attributes":{
						"POSITION":18,
						"NORMAL":19
					},
					"indices":20,
					"material":5
				}
			]
		},
		{
			"name":"TextPlus003",
			"primitives":[
				{
					"attributes":{
						"POSITION":21,
						"NORMAL":22
					},
					"indices":23,
					"material":5
				}
			]
		},
		{
			"name":"TextPlus004",
			"primitives":[
				{
					"attributes":{
						"POSITION":24,
						"NORMAL":25
					},
					"indices":26,
					"material":5
				}
			]
		},
		{
			"name":"Torus001",
			"primitives":[
				{
					"attributes":{
						"POSITION":27,
						"NORMAL":28,
						"TEXCOORD_0":29
					},
					"indices":30,
					"material":6
				}
			]
		},
		{
			"name":"Torus003",
			"primitives":[
				{
					"attributes":{
						"POSITION":31,
						"NORMAL":32,
						"TEXCOORD_0":33
					},
					"indices":34,
					"material":4
				}
			]
		},
		{
			"name":"Torus004",
			"primitives":[
				{
					"attributes":{
						"POSITION":35,
						"NORMAL":36,
						"TEXCOORD_0":37
					},
					"indices":34,
					"material":7
				}
			]
		},
		{
			"name":"Torus005",
			"primitives":[
				{
					"attributes":{
						"POSITION":38,
						"NORMAL":39,
						"TEXCOORD_0":40
					},
					"indices":41,
					"material":8
				}
			]
		},
		{
			"name":"Torus_Knot001",
			"primitives":[
				{
					"attributes":{
						"POSITION":42,
						"NORMAL":43,
						"TEXCOORD_0":44
					},
					"indices":45,
					"material":6
				}
			]
		},
		{
			"name":"Tube001",
			"primitives":[
				{
					"attributes":{
						"POSITION":46,
						"NORMAL":47,
						"TEXCOORD_0":48
					},
					"indices":49,
					"material":4
				}
			]
		}
	],
	"accessors":[
		{
			"bufferView":0,
			"componentType":5126,
			"count":18,
			"max":[
				-8.497699737548828,
				21.212299346923828,
				0.5275999903678894
			],
			"min":[
				-20.198299407958984,
				6.882400035858154,
				-11.018099784851074
			],
			"type":"VEC3"
		},
		{
			"bufferView":1,
			"componentType":5126,
			"count":18,
			"type":"VEC3"
		},
		{
			"bufferView":2,
			"componentType":5126,
			"count":18,
			"type":"VEC2"
		},
		{
			"bufferView":3,
			"componentType":5123,
			"count":48,
			"type":"SCALAR"
		},
		{
			"bufferView":4,
			"componentType":5126,
			"count":32450,
			"max":[
				31.50950050354004,
				38.16910171508789,
				3.1041998863220215
			],
			"min":[
				24.049299240112305,
				28.30340003967285,
				-11.670000076293945
			],
			"type":"VEC3"
		},
		{
			"bufferView":5,
			"componentType":5126,
			"count":32450,
			"type":"VEC3"
		},
		{
			"bufferView":6,
			"componentType":5126,
			"count":32450,
			"type":"VEC2"
		},
		{
			"bufferView":7,
			"componentType":5123,
			"count":120000,
			"type":"SCALAR"
		},
		{
			"bufferView":8,
			"componentType":5126,
			"count":559,
			"max":[
				18.94529914855957,
				28.864299774169922,
				-20.905799865722656
			],
			"min":[
				10.360300064086914,
				20.279399871826172,
				-29.490699768066406
			],
			"type":"VEC3"
		},
		{
			"bufferView":9,
			"componentType":5126,
			"count":559,
			"type":"VEC3"
		},
		{
			"bufferView":10,
			"componentType":5126,
			"count":559,
			"type":"VEC2"
		},
		{
			"bufferView":11,
			"componentType":5123,
			"count":2880,
			"type":"SCALAR"
		},
		{
			"bufferView":12,
			"componentType":5126,
			"count":559,
			"max":[
				36.62860107421875,
				17.832300186157227,
				-11.740900039672852
			],
			"min":[
				18.154800415039062,
				-0.6414999961853027,
				-30.21470069885254
			],
			"type":"VEC3"
		},
		{
			"bufferView":13,
			"componentType":5126,
			"count":559,
			"type":"VEC3"
		},
		{
			"bufferView":14,
			"componentType":5126,
			"count":559,
			"type":"VEC2"
		},
		{
			"bufferView":15,
			"componentType":5126,
			"count":559,
			"max":[
				-20.032400131225586,
				26.237300872802734,
				-10.487500190734863
			],
			"min":[
				-23.440799713134766,
				22.82900047302246,
				-13.89579963684082
			],
			"type":"VEC3"
		},
		{
			"bufferView":16,
			"componentType":5126,
			"count":559,
			"type":"VEC3"
		},
		{
			"bufferView":17,
			"componentType":5126,
			"count":559,
			"type":"VEC2"
		},
		{
			"bufferView":18,
			"componentType":5126,
			"count":19040,
			"max":[
				12.805100440979004,
				28.085399627685547,
				3.5978000164031982
			],
			"min":[
				-7.726900100708008,
				24.4862003326416,
				-7.84119987487793
			],
			"type":"VEC3"
		},
		{
			"bufferView":19,
			"componentType":5126,
			"count":19040,
			"type":"VEC3"
		},
		{
			"bufferView":20,
			"componentType":5123,
			"count":111834,
			"type":"SCALAR"
		},
		{
			"bufferView":21,
			"componentType":5126,
			"count":16998,
			"max":[
				8.287799835205078,
				28.1294002532959,
				-9.933199882507324
			],
			"min":[
				-14.976900100708008,
				24.526399612426758,
				-22.609899520874023
			],
			"type":"VEC3"
		},
		{
			"bufferView":22,
			"componentType":5126,
			"count":16998,
			"type":"VEC3"
		},
		{
			"bufferView":23,
			"componentType":5123,
			"count":99108,
			"type":"SCALAR"
		},
		{
			"bufferView":24,
			"componentType":5126,
			"count":35302,
			"max":[
				32.43429946899414,
				28.04560089111328,
				17.001800537109375
			],
			"min":[
				-7.648399829864502,
				24.446300506591797,
				5.56279993057251
			],
			"type":"VEC3"
		},
		{
			"bufferView":25,
			"componentType":5126,
			"count":35302,
			"type":"VEC3"
		},
		{
			"bufferView":26,
			"componentType":5123,
			"count":207390,
			"type":"SCALAR"
		},
		{
			"bufferView":27,
			"componentType":5126,
			"count":600,
			"max":[
				-3.77810001373291,
				25.671300888061523,
				21.37420082092285
			],
			"min":[
				-23.355100631713867,
				23.252599716186523,
				1.813099980354309
			],
			"type":"VEC3"
		},
		{
			"bufferView":28,
			"componentType":5126,
			"count":600,
			"type":"VEC3"
		},
		{
			"bufferView":29,
			"componentType":5126,
			"count":600,
			"type":"VEC2"
		},
		{
			"bufferView":30,
			"componentType":5123,
			"count":3276,
			"type":"SCALAR"
		},
		{
			"bufferView":31,
			"componentType":5126,
			"count":375,
			"max":[
				-13.094599723815918,
				28.664899826049805,
				25.0398006439209
			],
			"min":[
				-17.09079933166504,
				20.196399688720703,
				17.269399642944336
			],
			"type":"VEC3"
		},
		{
			"bufferView":32,
			"componentType":5126,
			"count":375,
			"type":"VEC3"
		},
		{
			"bufferView":33,
			"componentType":5126,
			"count":375,
			"type":"VEC2"
		},
		{
			"bufferView":34,
			"componentType":5123,
			"count":2016,
			"type":"SCALAR"
		},
		{
			"bufferView":35,
			"componentType":5126,
			"count":375,
			"max":[
				-14.534500122070312,
				28.691699981689453,
				24.3523006439209
			],
			"min":[
				-20.56909942626953,
				20.182100296020508,
				17.96150016784668
			],
			"type":"VEC3"
		},
		{
			"bufferView":36,
			"componentType":5126,
			"count":375,
			"type":"VEC3"
		},
		{
			"bufferView":37,
			"componentType":5126,
			"count":375,
			"type":"VEC2"
		},
		{
			"bufferView":38,
			"componentType":5126,
			"count":700,
			"max":[
				-10.687100410461426,
				33.148101806640625,
				13.071800231933594
			],
			"min":[
				-27.75670051574707,
				15.82699966430664,
				-4.437300205230713
			],
			"type":"VEC3"
		},
		{
			"bufferView":39,
			"componentType":5126,
			"count":700,
			"type":"VEC3"
		},
		{
			"bufferView":40,
			"componentType":5126,
			"count":700,
			"type":"VEC2"
		},
		{
			"bufferView":41,
			"componentType":5123,
			"count":3888,
			"type":"SCALAR"
		},
		{
			"bufferView":42,
			"componentType":5126,
			"count":1521,
			"max":[
				29.557600021362305,
				35.79130172729492,
				9.185400009155273
			],
			"min":[
				-0.9872999787330627,
				13.242799758911133,
				-22.69809913635254
			],
			"type":"VEC3"
		},
		{
			"bufferView":43,
			"componentType":5126,
			"count":1521,
			"type":"VEC3"
		},
		{
			"bufferView":44,
			"componentType":5126,
			"count":1521,
			"type":"VEC2"
		},
		{
			"bufferView":45,
			"componentType":5123,
			"count":8352,
			"type":"SCALAR"
		},
		{
			"bufferView":46,
			"componentType":5126,
			"count":669,
			"max":[
				27.74850082397461,
				31.205299377441406,
				-5.449900150299072
			],
			"min":[
				14.510899543762207,
				13.65939998626709,
				-16.470399856567383
			],
			"type":"VEC3"
		},
		{
			"bufferView":47,
			"componentType":5126,
			"count":669,
			"type":"VEC3"
		},
		{
			"bufferView":48,
			"componentType":5126,
			"count":669,
			"type":"VEC2"
		},
		{
			"bufferView":49,
			"componentType":5123,
			"count":1824,
			"type":"SCALAR"
		}
	],
	"bufferViews":[
		{
			"buffer":0,
			"byteLength":216,
			"byteOffset":0,
			"target":34962
		},
		{
			"buffer":0,
			"byteLength":216,
			"byteOffset":216,
			"target":34962
		},
		{
			"buffer":0,
			"byteLength":144,
			"byteOffset":432,
			"target":34962
		},
		{
			"buffer":0,
			"byteLength":96,
			"byteOffset":576,
			"target":34963
		},
		{
			"buffer":0,
			"byteLength":389400,
			"byteOffset":672,
			"target":34962
		},
		{
			"buffer":0,
			"byteLength":389400,
			"byteOffset":390072,
			"target":34962
		},
		{
			"buffer":0,
			"byteLength":259600,
			"byteOffset":779472,
			"target":34962
		},
		{
			"buffer":0,
			"byteLength":240000,
			"byteOffset":1039072,
			"target":34963
		},
		{
			"buffer":0,
			"byteLength":6708,
			"byteOffset":1279072,
			"target":34962
		},
		{
			"buffer":0,
			"byteLength":6708,
			"byteOffset":1285780,
			"target":34962
		},
		{
			"buffer":0,
			"byteLength":4472,
			"byteOffset":1292488,
			"target":34962
		},
		{
			"buffer":0,
			"byteLength":5760,
			"byteOffset":1296960,
			"target":34963
		},
		{
			"buffer":0,
			"byteLength":6708,
			"byteOffset":1302720,
			"target":34962
		},
		{
			"buffer":0,
			"byteLength":6708,
			"byteOffset":1309428,
			"target":34962
		},
		{
			"buffer":0,
			"byteLength":4472,
			"byteOffset":1316136,
			"target":34962
		},
		{
			"buffer":0,
			"byteLength":6708,
			"byteOffset":1320608,
			"target":34962
		},
		{
			"buffer":0,
			"byteLength":6708,
			"byteOffset":1327316,
			"target":34962
		},
		{
			"buffer":0,
			"byteLength":4472,
			"byteOffset":1334024,
			"target":34962
		},
		{
			"buffer":0,
			"byteLength":228480,
			"byteOffset":1338496,
			"target":34962
		},
		{
			"buffer":0,
			"byteLength":228480,
			"byteOffset":1566976,
			"target":34962
		},
		{
			"buffer":0,
			"byteLength":223668,
			"byteOffset":1795456,
			"target":34963
		},
		{
			"buffer":0,
			"byteLength":203976,
			"byteOffset":2019124,
			"target":34962
		},
		{
			"buffer":0,
			"byteLength":203976,
			"byteOffset":2223100,
			"target":34962
		},
		{
			"buffer":0,
			"byteLength":198216,
			"byteOffset":2427076,
			"target":34963
		},
		{
			"buffer":0,
			"byteLength":423624,
			"byteOffset":2625292,
			"target":34962
		},
		{
			"buffer":0,
			"byteLength":423624,
			"byteOffset":3048916,
			"target":34962
		},
		{
			"buffer":0,
			"byteLength":414780,
			"byteOffset":3472540,
			"target":34963
		},
		{
			"buffer":0,
			"byteLength":7200,
			"byteOffset":3887320,
			"target":34962
		},
		{
			"buffer":0,
			"byteLength":7200,
			"byteOffset":3894520,
			"target":34962
		},
		{
			"buffer":0,
			"byteLength":4800,
			"byteOffset":3901720,
			"target":34962
		},
		{
			"buffer":0,
			"byteLength":6552,
			"byteOffset":3906520,
			"target":34963
		},
		{
			"buffer":0,
			"byteLength":4500,
			"byteOffset":3913072,
			"target":34962
		},
		{
			"buffer":0,
			"byteLength":4500,
			"byteOffset":3917572,
			"target":34962
		},
		{
			"buffer":0,
			"byteLength":3000,
			"byteOffset":3922072,
			"target":34962
		},
		{
			"buffer":0,
			"byteLength":4032,
			"byteOffset":3925072,
			"target":34963
		},
		{
			"buffer":0,
			"byteLength":4500,
			"byteOffset":3929104,
			"target":34962
		},
		{
			"buffer":0,
			"byteLength":4500,
			"byteOffset":3933604,
			"target":34962
		},
		{
			"buffer":0,
			"byteLength":3000,
			"byteOffset":3938104,
			"target":34962
		},
		{
			"buffer":0,
			"byteLength":8400,
			"byteOffset":3941104,
			"target":34962
		},
		{
			"buffer":0,
			"byteLength":8400,
			"byteOffset":3949504,
			"target":34962
		},
		{
			"buffer":0,
			"byteLength":5600,
			"byteOffset":3957904,
			"target":34962
		},
		{
			"buffer":0,
			"byteLength":7776,
			"byteOffset":3963504,
			"target":34963
		},
		{
			"buffer":0,
			"byteLength":18252,
			"byteOffset":3971280,
			"target":34962
		},
		{
			"buffer":0,
			"byteLength":18252,
			"byteOffset":3989532,
			"target":34962
		},
		{
			"buffer":0,
			"byteLength":12168,
			"byteOffset":4007784,
			"target":34962
		},
		{
			"buffer":0,
			"byteLength":16704,
			"byteOffset":4019952,
			"target":34963
		},
		{
			"buffer":0,
			"byteLength":8028,
			"byteOffset":4036656,
			"target":34962
		},
		{
			"buffer":0,
			"byteLength":8028,
			"byteOffset":4044684,
			"target":34962
		},
		{
			"buffer":0,
			"byteLength":5352,
			"byteOffset":4052712,
			"target":34962
		},
		{
			"buffer":0,
			"byteLength":3648,
			"byteOffset":4058064,
			"target":34963
		}
	],
	"buffers":[
		{
			"byteLength":4061712,
			"uri":"m1.bin"
		}
	]
}
