{
	"asset":{
		"generator":"Khronos glTF Blender I/O v4.4.56",
		"version":"2.0"
	},
	"extensionsUsed":[
		"KHR_materials_transmission",
		"KHR_materials_specular"
	],
	"scene":0,
	"scenes":[
		{
			"name":"Scene",
			"nodes":[
				0,
				1,
				2,
				3,
				4,
				5,
				6,
				7,
				8,
				9
			]
		}
	],
	"nodes":[
		{
			"mesh":0,
			"name":"Box002",
			"rotation":[
				0.7071068286895752,
				0,
				0,
				0.7071068286895752
			]
		},
		{
			"mesh":1,
			"name":"Cylinder001",
			"rotation":[
				0.7071068286895752,
				0,
				0,
				0.7071068286895752
			]
		},
		{
			"mesh":2,
			"name":"model",
			"rotation":[
				0.7071068286895752,
				0,
				0,
				0.7071068286895752
			]
		},
		{
			"mesh":3,
			"name":"model001",
			"rotation":[
				0.7071068286895752,
				0,
				0,
				0.7071068286895752
			]
		},
		{
			"mesh":4,
			"name":"model002",
			"rotation":[
				0.7071068286895752,
				0,
				0,
				0.7071068286895752
			]
		},
		{
			"mesh":5,
			"name":"model003",
			"rotation":[
				0.7071068286895752,
				0,
				0,
				0.7071068286895752
			]
		},
		{
			"mesh":6,
			"name":"Sphere001",
			"rotation":[
				0.7071068286895752,
				0,
				0,
				0.7071068286895752
			]
		},
		{
			"mesh":7,
			"name":"Sphere002",
			"rotation":[
				0.7071068286895752,
				0,
				0,
				0.7071068286895752
			]
		},
		{
			"mesh":8,
			"name":"TextPlus001",
			"rotation":[
				0.7071068286895752,
				0,
				0,
				0.7071068286895752
			]
		},
		{
			"mesh":9,
			"name":"Torus001",
			"rotation":[
				0.7071068286895752,
				0,
				0,
				0.7071068286895752
			]
		}
	],
	"materials":[
		{
			"doubleSided":true,
			"extensions":{
				"KHR_materials_transmission":{
					"transmissionFactor":1
				},
				"KHR_materials_specular":{
					"specularFactor":0.699999988079071
				}
			},
			"name":"wire_214229166",
			"pbrMetallicRoughness":{
				"baseColorFactor":[
					0.8392000198364258,
					0.8980000019073486,
					0.6510000228881836,
					1
				],
				"metallicFactor":0,
				"roughnessFactor":0.8211145401000977
			}
		},
		{
			"doubleSided":true,
			"extensions":{
				"KHR_materials_transmission":{
					"transmissionFactor":1
				},
				"KHR_materials_specular":{
					"specularFactor":0.699999988079071
				}
			},
			"name":"wire_088088225",
			"pbrMetallicRoughness":{
				"baseColorFactor":[
					0.3450999855995178,
					0.3450999855995178,
					0.8823999762535095,
					1
				],
				"metallicFactor":0,
				"roughnessFactor":0.8211145401000977
			}
		},
		{
			"doubleSided":true,
			"extensions":{
				"KHR_materials_transmission":{
					"transmissionFactor":1
				},
				"KHR_materials_specular":{
					"specularFactor":0.699999988079071
				}
			},
			"name":"wire_143224087",
			"pbrMetallicRoughness":{
				"baseColorFactor":[
					0.5608000159263611,
					0.8784000277519226,
					0.34119999408721924,
					1
				],
				"metallicFactor":0,
				"roughnessFactor":0.8211145401000977
			}
		},
		{
			"doubleSided":true,
			"extensions":{
				"KHR_materials_transmission":{
					"transmissionFactor":1
				},
				"KHR_materials_specular":{
					"specularFactor":0.699999988079071
				}
			},
			"name":"wire_134110008",
			"pbrMetallicRoughness":{
				"baseColorFactor":[
					0.5254999995231628,
					0.43140000104904175,
					0.03139999881386757,
					1
				],
				"metallicFactor":0,
				"roughnessFactor":0.8211145401000977
			}
		},
		{
			"doubleSided":true,
			"extensions":{
				"KHR_materials_transmission":{
					"transmissionFactor":1
				},
				"KHR_materials_specular":{
					"specularFactor":0.699999988079071
				}
			},
			"name":"wire_008008136",
			"pbrMetallicRoughness":{
				"baseColorFactor":[
					0.03139999881386757,
					0.03139999881386757,
					0.53329998254776,
					1
				],
				"metallicFactor":0,
				"roughnessFactor":0.8211145401000977
			}
		},
		{
			"doubleSided":true,
			"extensions":{
				"KHR_materials_transmission":{
					"transmissionFactor":1
				},
				"KHR_materials_specular":{
					"specularFactor":0.699999988079071
				}
			},
			"name":"wire_224198087",
			"pbrMetallicRoughness":{
				"baseColorFactor":[
					0.8784000277519226,
					0.7764999866485596,
					0.34119999408721924,
					1
				],
				"metallicFactor":0,
				"roughnessFactor":0.8211145401000977
			}
		},
		{
			"doubleSided":true,
			"extensions":{
				"KHR_materials_transmission":{
					"transmissionFactor":1
				},
				"KHR_materials_specular":{
					"specularFactor":0.699999988079071
				}
			},
			"name":"wire_225198087",
			"pbrMetallicRoughness":{
				"baseColorFactor":[
					0.8823999762535095,
					0.7764999866485596,
					0.34119999408721924,
					1
				],
				"metallicFactor":0,
				"roughnessFactor":0.8211145401000977
			}
		},
		{
			"doubleSided":true,
			"extensions":{
				"KHR_materials_transmission":{
					"transmissionFactor":1
				},
				"KHR_materials_specular":{
					"specularFactor":0.699999988079071
				}
			},
			"name":"wire_085028177",
			"pbrMetallicRoughness":{
				"baseColorFactor":[
					0.33329999446868896,
					0.10980000346899033,
					0.694100022315979,
					1
				],
				"metallicFactor":0,
				"roughnessFactor":0.8211145401000977
			}
		},
		{
			"doubleSided":true,
			"extensions":{
				"KHR_materials_transmission":{
					"transmissionFactor":1
				},
				"KHR_materials_specular":{
					"specularFactor":0.699999988079071
				}
			},
			"name":"wire_184155229",
			"pbrMetallicRoughness":{
				"baseColorFactor":[
					0.7215999960899353,
					0.6078000068664551,
					0.8980000019073486,
					1
				],
				"metallicFactor":0,
				"roughnessFactor":0.8211145401000977
			}
		}
	],
	"meshes":[
		{
			"name":"Box002",
			"primitives":[
				{
					"attributes":{
						"POSITION":0,
						"NORMAL":1,
						"TEXCOORD_0":2
					},
					"indices":3,
					"material":0
				}
			]
		},
		{
			"name":"Cylinder001",
			"primitives":[
				{
					"attributes":{
						"POSITION":4,
						"NORMAL":5,
						"TEXCOORD_0":6
					},
					"indices":7,
					"material":1
				}
			]
		},
		{
			"name":"model",
			"primitives":[
				{
					"attributes":{
						"POSITION":8,
						"NORMAL":9,
						"TEXCOORD_0":10
					},
					"indices":11,
					"material":2
				}
			]
		},
		{
			"name":"model001",
			"primitives":[
				{
					"attributes":{
						"POSITION":12,
						"NORMAL":13,
						"TEXCOORD_0":14
					},
					"indices":15,
					"material":3
				}
			]
		},
		{
			"name":"model002",
			"primitives":[
				{
					"attributes":{
						"POSITION":16,
						"NORMAL":17,
						"TEXCOORD_0":18
					},
					"indices":19,
					"material":4
				}
			]
		},
		{
			"name":"model003",
			"primitives":[
				{
					"attributes":{
						"POSITION":20,
						"NORMAL":21,
						"TEXCOORD_0":22
					},
					"indices":23,
					"material":5
				}
			]
		},
		{
			"name":"Sphere001",
			"primitives":[
				{
					"attributes":{
						"POSITION":24,
						"NORMAL":25,
						"TEXCOORD_0":26
					},
					"indices":27,
					"material":6
				}
			]
		},
		{
			"name":"Sphere002",
			"primitives":[
				{
					"attributes":{
						"POSITION":28,
						"NORMAL":29,
						"TEXCOORD_0":30
					},
					"indices":27,
					"material":6
				}
			]
		},
		{
			"name":"TextPlus001",
			"primitives":[
				{
					"attributes":{
						"POSITION":31,
						"NORMAL":32
					},
					"indices":33,
					"material":7
				}
			]
		},
		{
			"name":"Torus001",
			"primitives":[
				{
					"attributes":{
						"POSITION":34,
						"NORMAL":35,
						"TEXCOORD_0":36
					},
					"indices":37,
					"material":8
				}
			]
		}
	],
	"accessors":[
		{
			"bufferView":0,
			"componentType":5126,
			"count":4048,
			"max":[
				44.10089874267578,
				4.723800182342529,
				-36.802398681640625
			],
			"min":[
				34.147701263427734,
				-5.426700115203857,
				-46.75550079345703
			],
			"type":"VEC3"
		},
		{
			"bufferView":1,
			"componentType":5126,
			"count":4048,
			"type":"VEC3"
		},
		{
			"bufferView":2,
			"componentType":5126,
			"count":4048,
			"type":"VEC2"
		},
		{
			"bufferView":3,
			"componentType":5123,
			"count":20736,
			"type":"SCALAR"
		},
		{
			"bufferView":4,
			"componentType":5126,
			"count":47262,
			"max":[
				7.616499900817871,
				29.388500213623047,
				-3.293299913406372
			],
			"min":[
				-22.702899932861328,
				-0.8871999979019165,
				-23.15239906311035
			],
			"type":"VEC3"
		},
		{
			"bufferView":5,
			"componentType":5126,
			"count":47262,
			"type":"VEC3"
		},
		{
			"bufferView":6,
			"componentType":5126,
			"count":47262,
			"type":"VEC2"
		},
		{
			"bufferView":7,
			"componentType":5123,
			"count":281520,
			"type":"SCALAR"
		},
		{
			"bufferView":8,
			"componentType":5126,
			"count":21194,
			"max":[
				63.56669998168945,
				40.38460159301758,
				-2.952199935913086
			],
			"min":[
				38.530799865722656,
				8.010700225830078,
				-22.68429946899414
			],
			"type":"VEC3"
		},
		{
			"bufferView":9,
			"componentType":5126,
			"count":21194,
			"type":"VEC3"
		},
		{
			"bufferView":10,
			"componentType":5126,
			"count":21194,
			"type":"VEC2"
		},
		{
			"bufferView":11,
			"componentType":5123,
			"count":111900,
			"type":"SCALAR"
		},
		{
			"bufferView":12,
			"componentType":5126,
			"count":19655,
			"max":[
				2.401900053024292,
				17.87380027770996,
				-7.357600212097168
			],
			"min":[
				-12.92490005493164,
				4.625400066375732,
				-50.57429885864258
			],
			"type":"VEC3"
		},
		{
			"bufferView":13,
			"componentType":5126,
			"count":19655,
			"type":"VEC3"
		},
		{
			"bufferView":14,
			"componentType":5126,
			"count":19655,
			"type":"VEC2"
		},
		{
			"bufferView":15,
			"componentType":5123,
			"count":104730,
			"type":"SCALAR"
		},
		{
			"bufferView":16,
			"componentType":5126,
			"count":18610,
			"max":[
				41.627601623535156,
				21.56220054626465,
				0.9182999730110168
			],
			"min":[
				20.40089988708496,
				0.335999995470047,
				-18.228099822998047
			],
			"type":"VEC3"
		},
		{
			"bufferView":17,
			"componentType":5126,
			"count":18610,
			"type":"VEC3"
		},
		{
			"bufferView":18,
			"componentType":5126,
			"count":18610,
			"type":"VEC2"
		},
		{
			"bufferView":19,
			"componentType":5123,
			"count":104274,
			"type":"SCALAR"
		},
		{
			"bufferView":20,
			"componentType":5126,
			"count":19136,
			"max":[
				-6.872300148010254,
				11.017999649047852,
				-16.062599182128906
			],
			"min":[
				-24.418100357055664,
				1.7747000455856323,
				-37.147300720214844
			],
			"type":"VEC3"
		},
		{
			"bufferView":21,
			"componentType":5126,
			"count":19136,
			"type":"VEC3"
		},
		{
			"bufferView":22,
			"componentType":5126,
			"count":19136,
			"type":"VEC2"
		},
		{
			"bufferView":23,
			"componentType":5123,
			"count":102102,
			"type":"SCALAR"
		},
		{
			"bufferView":24,
			"componentType":5126,
			"count":559,
			"max":[
				8.606100082397461,
				-11.798600196838379,
				-38.05379867553711
			],
			"min":[
				3.5792999267578125,
				-16.82539939880371,
				-43.0806999206543
			],
			"type":"VEC3"
		},
		{
			"bufferView":25,
			"componentType":5126,
			"count":559,
			"type":"VEC3"
		},
		{
			"bufferView":26,
			"componentType":5126,
			"count":559,
			"type":"VEC2"
		},
		{
			"bufferView":27,
			"componentType":5123,
			"count":2880,
			"type":"SCALAR"
		},
		{
			"bufferView":28,
			"componentType":5126,
			"count":559,
			"max":[
				3.5806000232696533,
				-8.844200134277344,
				-40.33679962158203
			],
			"min":[
				-7.354899883270264,
				-19.779800415039062,
				-51.272300720214844
			],
			"type":"VEC3"
		},
		{
			"bufferView":29,
			"componentType":5126,
			"count":559,
			"type":"VEC3"
		},
		{
			"bufferView":30,
			"componentType":5126,
			"count":559,
			"type":"VEC2"
		},
		{
			"bufferView":31,
			"componentType":5126,
			"count":21105,
			"max":[
				51.821998596191406,
				-0.049300000071525574,
				-13.976400375366211
			],
			"min":[
				-2.9375998973846436,
				-6.3491997718811035,
				-33.55699920654297
			],
			"type":"VEC3"
		},
		{
			"bufferView":32,
			"componentType":5126,
			"count":21105,
			"type":"VEC3"
		},
		{
			"bufferView":33,
			"componentType":5123,
			"count":126582,
			"type":"SCALAR"
		},
		{
			"bufferView":34,
			"componentType":5126,
			"count":689,
			"max":[
				31.469200134277344,
				19.410999298095703,
				-10.803400039672852
			],
			"min":[
				-6.748700141906738,
				-23.654399871826172,
				-37.832801818847656
			],
			"type":"VEC3"
		},
		{
			"bufferView":35,
			"componentType":5126,
			"count":689,
			"type":"VEC3"
		},
		{
			"bufferView":36,
			"componentType":5126,
			"count":689,
			"type":"VEC2"
		},
		{
			"bufferView":37,
			"componentType":5123,
			"count":3744,
			"type":"SCALAR"
		}
	],
	"bufferViews":[
		{
			"buffer":0,
			"byteLength":48576,
			"byteOffset":0,
			"target":34962
		},
		{
			"buffer":0,
			"byteLength":48576,
			"byteOffset":48576,
			"target":34962
		},
		{
			"buffer":0,
			"byteLength":32384,
			"byteOffset":97152,
			"target":34962
		},
		{
			"buffer":0,
			"byteLength":41472,
			"byteOffset":129536,
			"target":34963
		},
		{
			"buffer":0,
			"byteLength":567144,
			"byteOffset":171008,
			"target":34962
		},
		{
			"buffer":0,
			"byteLength":567144,
			"byteOffset":738152,
			"target":34962
		},
		{
			"buffer":0,
			"byteLength":378096,
			"byteOffset":1305296,
			"target":34962
		},
		{
			"buffer":0,
			"byteLength":563040,
			"byteOffset":1683392,
			"target":34963
		},
		{
			"buffer":0,
			"byteLength":254328,
			"byteOffset":2246432,
			"target":34962
		},
		{
			"buffer":0,
			"byteLength":254328,
			"byteOffset":2500760,
			"target":34962
		},
		{
			"buffer":0,
			"byteLength":169552,
			"byteOffset":2755088,
			"target":34962
		},
		{
			"buffer":0,
			"byteLength":223800,
			"byteOffset":2924640,
			"target":34963
		},
		{
			"buffer":0,
			"byteLength":235860,
			"byteOffset":3148440,
			"target":34962
		},
		{
			"buffer":0,
			"byteLength":235860,
			"byteOffset":3384300,
			"target":34962
		},
		{
			"buffer":0,
			"byteLength":157240,
			"byteOffset":3620160,
			"target":34962
		},
		{
			"buffer":0,
			"byteLength":209460,
			"byteOffset":3777400,
			"target":34963
		},
		{
			"buffer":0,
			"byteLength":223320,
			"byteOffset":3986860,
			"target":34962
		},
		{
			"buffer":0,
			"byteLength":223320,
			"byteOffset":4210180,
			"target":34962
		},
		{
			"buffer":0,
			"byteLength":148880,
			"byteOffset":4433500,
			"target":34962
		},
		{
			"buffer":0,
			"byteLength":208548,
			"byteOffset":4582380,
			"target":34963
		},
		{
			"buffer":0,
			"byteLength":229632,
			"byteOffset":4790928,
			"target":34962
		},
		{
			"buffer":0,
			"byteLength":229632,
			"byteOffset":5020560,
			"target":34962
		},
		{
			"buffer":0,
			"byteLength":153088,
			"byteOffset":5250192,
			"target":34962
		},
		{
			"buffer":0,
			"byteLength":204204,
			"byteOffset":5403280,
			"target":34963
		},
		{
			"buffer":0,
			"byteLength":6708,
			"byteOffset":5607484,
			"target":34962
		},
		{
			"buffer":0,
			"byteLength":6708,
			"byteOffset":5614192,
			"target":34962
		},
		{
			"buffer":0,
			"byteLength":4472,
			"byteOffset":5620900,
			"target":34962
		},
		{
			"buffer":0,
			"byteLength":5760,
			"byteOffset":5625372,
			"target":34963
		},
		{
			"buffer":0,
			"byteLength":6708,
			"byteOffset":5631132,
			"target":34962
		},
		{
			"buffer":0,
			"byteLength":6708,
			"byteOffset":5637840,
			"target":34962
		},
		{
			"buffer":0,
			"byteLength":4472,
			"byteOffset":5644548,
			"target":34962
		},
		{
			"buffer":0,
			"byteLength":253260,
			"byteOffset":5649020,
			"target":34962
		},
		{
			"buffer":0,
			"byteLength":253260,
			"byteOffset":5902280,
			"target":34962
		},
		{
			"buffer":0,
			"byteLength":253164,
			"byteOffset":6155540,
			"target":34963
		},
		{
			"buffer":0,
			"byteLength":8268,
			"byteOffset":6408704,
			"target":34962
		},
		{
			"buffer":0,
			"byteLength":8268,
			"byteOffset":6416972,
			"target":34962
		},
		{
			"buffer":0,
			"byteLength":5512,
			"byteOffset":6425240,
			"target":34962
		},
		{
			"buffer":0,
			"byteLength":7488,
			"byteOffset":6430752,
			"target":34963
		}
	],
	"buffers":[
		{
			"byteLength":6438240,
			"uri":"m2.bin"
		}
	]
}
