{
	"asset":{
		"generator":"Khronos glTF Blender I/O v4.4.56",
		"version":"2.0"
	},
	"extensionsUsed":[
		"KHR_materials_specular"
	],
	"scene":0,
	"scenes":[
		{
			"name":"Scene",
			"nodes":[
				0,
				1,
				2,
				3,
				4,
				5,
				6,
				7,
				8,
				9,
				10,
				11,
				12,
				13
			]
		}
	],
	"nodes":[
		{
			"mesh":0,
			"name":"TextPlus002",
			"rotation":[
				0.7081577181816101,
				0,
				0,
				0.7060543298721313
			],
			"scale":[
				0.0010000000474974513,
				0.0010000000474974513,
				0.0010000000474974513
			],
			"translation":[
				0.0025390787050127983,
				-0.0021803900599479675,
				0.024490395560860634
			]
		},
		{
			"mesh":1,
			"name":"TextPlus003",
			"rotation":[
				0.7081577181816101,
				0,
				0,
				0.7060543298721313
			],
			"scale":[
				0.0010000000474974513,
				0.0010000000474974513,
				0.0010000000474974513
			],
			"translation":[
				-0.0033445407170802355,
				0.011378704570233822,
				0.02453073114156723
			]
		},
		{
			"mesh":2,
			"name":"TextPlus004",
			"rotation":[
				0.7081577181816101,
				0,
				0,
				0.7060543298721313
			],
			"scale":[
				0.0010000000474974513,
				0.0010000000474974513,
				0.0010000000474974513
			],
			"translation":[
				0.012392979115247726,
				-0.015584317035973072,
				0.024450520053505898
			]
		},
		{
			"mesh":3,
			"name":"Tube001",
			"rotation":[
				0.572030782699585,
				-0.13241736590862274,
				0.18277280032634735,
				0.7885686159133911
			],
			"scale":[
				0.0010000000474974513,
				0.0010000000474974513,
				0.0010000000474974513
			],
			"translation":[
				0.02475234866142273,
				0.008663839660584927,
				0.015399092808365822
			]
		},
		{
			"mesh":4,
			"name":"Torus001",
			"rotation":[
				0.7081577181816101,
				0,
				0,
				0.7060542702674866
			],
			"scale":[
				0.000928160035982728,
				0.0009281601523980498,
				0.0009281601523980498
			],
			"translation":[
				-0.013566609472036362,
				-0.011609846726059914,
				0.024462342262268066
			]
		},
		{
			"mesh":5,
			"name":"Torus003",
			"rotation":[
				-0.7800412774085999,
				-0.5216285586357117,
				-0.3157287836074829,
				0.1405511498451233
			],
			"scale":[
				0.0010000000474974513,
				0.0010000000474974513,
				0.0010000000474974513
			],
			"translation":[
				-0.015092923305928707,
				-0.02115410938858986,
				0.024433953687548637
			]
		},
		{
			"mesh":6,
			"name":"Torus004",
			"rotation":[
				-0.5640468001365662,
				-0.202689528465271,
				-0.7221240401268005,
				0.34540557861328125
			],
			"scale":[
				0.0010000000474974513,
				0.0009999999310821295,
				0.0010000001639127731
			],
			"translation":[
				-0.01755424030125141,
				-0.02115410938858986,
				0.024433953687548637
			]
		},
		{
			"mesh":7,
			"name":"Hedra001",
			"rotation":[
				-0.04807788133621216,
				0.34118717908859253,
				0.3162108361721039,
				0.8839064240455627
			],
			"scale":[
				0.0008362901280634105,
				0.0008362900116480887,
				0.0008362900116480887
			],
			"translation":[
				-0.014348020777106285,
				0.00524528231471777,
				0.014047367498278618
			]
		},
		{
			"mesh":8,
			"name":"Torus Knot001",
			"rotation":[
				0.7081577181816101,
				0,
				0,
				0.7060543298721313
			],
			"scale":[
				0.0005539749981835485,
				0.0005539749981835485,
				0.0005401120288297534
			],
			"translation":[
				0.016863930970430374,
				0.006756274960935116,
				0.024516982957720757
			]
		},
		{
			"mesh":9,
			"name":"Sphere001",
			"rotation":[
				0.7081577181816101,
				0,
				0,
				0.7060543298721313
			],
			"scale":[
				0.0008803680539131165,
				0.0008803680539131165,
				0.0008803680539131165
			],
			"translation":[
				0.014652806334197521,
				0.025198254734277725,
				0.024571843445301056
			]
		},
		{
			"mesh":10,
			"name":"Sphere002",
			"rotation":[
				0.7081577181816101,
				0,
				0,
				0.7060543298721313
			],
			"scale":[
				0.0014382690424099565,
				0.0014382702065631747,
				0.0014382702065631747
			],
			"translation":[
				0.0273917093873024,
				0.020977815613150597,
				0.008595396764576435
			]
		},
		{
			"mesh":11,
			"name":"Torus005",
			"rotation":[
				0.017481889575719833,
				-0.5835108757019043,
				-0.47083285450935364,
				0.661457359790802
			],
			"scale":[
				0.00038089402369223535,
				0.00038089402369223535,
				0.00038089402369223535
			],
			"translation":[
				-0.0192294642329216,
				-0.0043183970265090466,
				0.02448403462767601
			]
		},
		{
			"mesh":12,
			"name":"Sphere003",
			"rotation":[
				0.7081577181816101,
				0,
				0,
				0.7060543298721313
			],
			"scale":[
				0.0006652920274063945,
				0.0006652921438217163,
				0.0006652921438217163
			],
			"translation":[
				-0.02173658460378647,
				0.012191669084131718,
				0.02453315258026123
			]
		},
		{
			"mesh":13,
			"name":"model",
			"rotation":[
				0.038836900144815445,
				0.26960843801498413,
				0.18450704216957092,
				0.944330632686615
			],
			"scale":[
				0.00829746387898922,
				0.008297464810311794,
				0.00829746387898922
			],
			"translation":[
				0.030451662838459015,
				-0.0030399553943425417,
				0.03147498145699501
			]
		}
	],
	"materials":[
		{
			"doubleSided":true,
			"extensions":{
				"KHR_materials_specular":{
					"specularColorFactor":[
						2.0,
						2.0,
						2.0
					]
				}
			},
			"name":"Porcelain Dusk Blue Edges Glossy0",
			"pbrMetallicRoughness":{
				"baseColorFactor":[
					0.7529412508010864,
					0.7098039388656616,
					0.6196078658103943,
					1
				],
				"metallicFactor":0,
				"roughnessFactor":0.5527864098548889
			}
		},
		{
			"doubleSided":true,
			"extensions":{
				"KHR_materials_specular":{
					"specularColorFactor":[
						2.0,
						2.0,
						2.0
					]
				}
			},
			"name":"Porcelain Dusk Blue Edges Glossy",
			"pbrMetallicRoughness":{
				"baseColorFactor":[
					0.7529412508010864,
					0.7098039388656616,
					0.6196078658103943,
					1
				],
				"metallicFactor":0,
				"roughnessFactor":0.5527864098548889
			}
		},
		{
			"doubleSided":true,
			"extensions":{
				"KHR_materials_specular":{
					"specularColorFactor":[
						2.0,
						2.0,
						2.0
					]
				}
			},
			"name":"Acrylic Opaque Olive Green0",
			"pbrMetallicRoughness":{
				"metallicFactor":0,
				"roughnessFactor":0.5527864098548889
			}
		},
		{
			"alphaMode":"BLEND",
			"doubleSided":true,
			"extensions":{
				"KHR_materials_specular":{
					"specularColorFactor":[
						2.0,
						2.0,
						2.0
					]
				}
			},
			"name":"Acrylic Transparent Blue",
			"pbrMetallicRoughness":{
				"baseColorFactor":[
					0,
					0,
					0,
					0.32352930307388306
				],
				"metallicFactor":0,
				"roughnessFactor":0.5527864098548889
			}
		},
		{
			"doubleSided":true,
			"extensions":{
				"KHR_materials_specular":{
					"specularColorFactor":[
						2.0,
						2.0,
						2.0
					]
				}
			},
			"name":"Aluminium Satin Fingerprints",
			"pbrMetallicRoughness":{
				"baseColorFactor":[
					0,
					0,
					0,
					1
				],
				"metallicFactor":0,
				"roughnessFactor":0.5527864098548889
			}
		},
		{
			"doubleSided":true,
			"extensions":{
				"KHR_materials_specular":{
					"specularColorFactor":[
						2.0,
						2.0,
						2.0
					]
				}
			},
			"name":"Aluminium Blue Anodized Fingerprints",
			"pbrMetallicRoughness":{
				"baseColorFactor":[
					0,
					0,
					0,
					1
				],
				"metallicFactor":0,
				"roughnessFactor":0.5527864098548889
			}
		},
		{
			"doubleSided":true,
			"extensions":{
				"KHR_materials_specular":{
					"specularColorFactor":[
						2.0,
						2.0,
						2.0
					]
				}
			},
			"name":"Silver Satin Clean",
			"pbrMetallicRoughness":{
				"baseColorFactor":[
					0,
					0,
					0,
					1
				],
				"metallicFactor":0,
				"roughnessFactor":0.5527864098548889
			}
		},
		{
			"alphaMode":"BLEND",
			"doubleSided":true,
			"extensions":{
				"KHR_materials_specular":{
					"specularColorFactor":[
						2.0,
						2.0,
						2.0
					]
				}
			},
			"name":"Glass Clear",
			"pbrMetallicRoughness":{
				"baseColorFactor":[
					0,
					0,
					0,
					0.10900002717971802
				],
				"metallicFactor":0,
				"roughnessFactor":0.5527864098548889
			}
		},
		{
			"doubleSided":true,
			"extensions":{
				"KHR_materials_specular":{
					"specularColorFactor":[
						2.0,
						2.0,
						2.0
					]
				}
			},
			"name":"Acrylic Opaque Olive Green",
			"pbrMetallicRoughness":{
				"metallicFactor":0,
				"roughnessFactor":0.5527864098548889
			}
		},
		{
			"doubleSided":true,
			"extensions":{
				"KHR_materials_specular":{
					"specularColorFactor":[
						2.0,
						2.0,
						2.0
					]
				}
			},
			"name":"Acrylic Opaque Olive Green1",
			"pbrMetallicRoughness":{
				"metallicFactor":0,
				"roughnessFactor":0.5527864098548889
			}
		},
		{
			"doubleSided":true,
			"extensions":{
				"KHR_materials_specular":{
					"specularColorFactor":[
						2.0,
						2.0,
						2.0
					]
				}
			},
			"name":"Aluminium Brushed Fingerprints",
			"pbrMetallicRoughness":{
				"baseColorFactor":[
					0,
					0,
					0,
					1
				],
				"metallicFactor":0,
				"roughnessFactor":0.5527864098548889
			}
		}
	],
	"meshes":[
		{
			"name":"Mesh",
			"primitives":[
				{
					"attributes":{
						"POSITION":0,
						"NORMAL":1
					},
					"indices":2,
					"material":0
				}
			]
		},
		{
			"name":"Mesh.001",
			"primitives":[
				{
					"attributes":{
						"POSITION":3,
						"NORMAL":4
					},
					"indices":5,
					"material":1
				}
			]
		},
		{
			"name":"Mesh.002",
			"primitives":[
				{
					"attributes":{
						"POSITION":6,
						"NORMAL":7
					},
					"indices":8,
					"material":0
				}
			]
		},
		{
			"name":"Mesh.003",
			"primitives":[
				{
					"attributes":{
						"POSITION":9,
						"NORMAL":10,
						"TEXCOORD_0":11
					},
					"indices":12,
					"material":2
				}
			]
		},
		{
			"name":"Mesh.004",
			"primitives":[
				{
					"attributes":{
						"POSITION":13,
						"NORMAL":14,
						"TEXCOORD_0":15
					},
					"indices":16,
					"material":3
				}
			]
		},
		{
			"name":"Mesh.005",
			"primitives":[
				{
					"attributes":{
						"POSITION":17,
						"NORMAL":18,
						"TEXCOORD_0":19
					},
					"indices":20
				}
			]
		},
		{
			"name":"Mesh.006",
			"primitives":[
				{
					"attributes":{
						"POSITION":21,
						"NORMAL":22,
						"TEXCOORD_0":23
					},
					"indices":20
				}
			]
		},
		{
			"name":"Mesh.007",
			"primitives":[
				{
					"attributes":{
						"POSITION":24,
						"NORMAL":25,
						"TEXCOORD_0":26
					},
					"indices":27,
					"material":4
				}
			]
		},
		{
			"name":"Mesh.008",
			"primitives":[
				{
					"attributes":{
						"POSITION":28,
						"NORMAL":29,
						"TEXCOORD_0":30
					},
					"indices":31,
					"material":5
				}
			]
		},
		{
			"name":"Mesh.009",
			"primitives":[
				{
					"attributes":{
						"POSITION":32,
						"NORMAL":33,
						"TEXCOORD_0":34
					},
					"indices":35,
					"material":6
				}
			]
		},
		{
			"name":"Mesh.010",
			"primitives":[
				{
					"attributes":{
						"POSITION":36,
						"NORMAL":37,
						"TEXCOORD_0":38
					},
					"indices":35,
					"material":7
				}
			]
		},
		{
			"name":"Mesh.011",
			"primitives":[
				{
					"attributes":{
						"POSITION":39,
						"NORMAL":40,
						"TEXCOORD_0":41
					},
					"indices":42,
					"material":8
				}
			]
		},
		{
			"name":"Mesh.012",
			"primitives":[
				{
					"attributes":{
						"POSITION":43,
						"NORMAL":44,
						"TEXCOORD_0":45
					},
					"indices":35,
					"material":9
				}
			]
		},
		{
			"name":"Mesh.013",
			"primitives":[
				{
					"attributes":{
						"POSITION":46,
						"NORMAL":47,
						"TEXCOORD_0":48
					},
					"indices":49,
					"material":10
				}
			]
		}
	],
	"accessors":[
		{
			"bufferView":0,
			"componentType":5126,
			"count":21158,
			"max":[
				10.266026496887207,
				3.5699996948242188,
				1.411603331565857
			],
			"min":[
				-10.266026496887207,
				0,
				-10.021604537963867
			],
			"type":"VEC3"
		},
		{
			"bufferView":1,
			"componentType":5126,
			"count":21158,
			"type":"VEC3"
		},
		{
			"bufferView":2,
			"componentType":5123,
			"count":111840,
			"type":"SCALAR"
		},
		{
			"bufferView":3,
			"componentType":5126,
			"count":18584,
			"max":[
				11.632367134094238,
				3.5699996948242188,
				1.4396593570709229
			],
			"min":[
				-11.632367134094238,
				0,
				-11.231245040893555
			],
			"type":"VEC3"
		},
		{
			"bufferView":4,
			"componentType":5126,
			"count":18584,
			"type":"VEC3"
		},
		{
			"bufferView":5,
			"componentType":5123,
			"count":99108,
			"type":"SCALAR"
		},
		{
			"bufferView":6,
			"componentType":5126,
			"count":39129,
			"max":[
				20.04136848449707,
				3.5699996948242188,
				1.4116034507751465
			],
			"min":[
				-20.04136848449707,
				0,
				-10.021604537963867
			],
			"type":"VEC3"
		},
		{
			"bufferView":7,
			"componentType":5126,
			"count":39129,
			"type":"VEC3"
		},
		{
			"bufferView":8,
			"componentType":5123,
			"count":207396,
			"type":"SCALAR"
		},
		{
			"bufferView":9,
			"componentType":5126,
			"count":468,
			"max":[
				3.335953950881958,
				16.47582244873047,
				3.3473870754241943
			],
			"min":[
				-3.335954189300537,
				0,
				-3.3473870754241943
			],
			"type":"VEC3"
		},
		{
			"bufferView":10,
			"componentType":5126,
			"count":468,
			"type":"VEC3"
		},
		{
			"bufferView":11,
			"componentType":5126,
			"count":468,
			"type":"VEC2"
		},
		{
			"bufferView":12,
			"componentType":5123,
			"count":1824,
			"type":"SCALAR"
		},
		{
			"bufferView":13,
			"componentType":5126,
			"count":600,
			"max":[
				10.546163558959961,
				1.2754091024398804,
				10.52049732208252
			],
			"min":[
				-10.546162605285645,
				-1.2754091024398804,
				-10.554722785949707
			],
			"type":"VEC3"
		},
		{
			"bufferView":14,
			"componentType":5126,
			"count":600,
			"type":"VEC3"
		},
		{
			"bufferView":15,
			"componentType":5126,
			"count":600,
			"type":"VEC2"
		},
		{
			"bufferView":16,
			"componentType":5123,
			"count":3276,
			"type":"SCALAR"
		},
		{
			"bufferView":17,
			"componentType":5126,
			"count":375,
			"max":[
				4.276254177093506,
				0.29606395959854126,
				4.276254177093506
			],
			"min":[
				-4.276254177093506,
				-0.29606395959854126,
				-4.276254177093506
			],
			"type":"VEC3"
		},
		{
			"bufferView":18,
			"componentType":5126,
			"count":375,
			"type":"VEC3"
		},
		{
			"bufferView":19,
			"componentType":5126,
			"count":375,
			"type":"VEC2"
		},
		{
			"bufferView":20,
			"componentType":5123,
			"count":2016,
			"type":"SCALAR"
		},
		{
			"bufferView":21,
			"componentType":5126,
			"count":375,
			"max":[
				4.276254177093506,
				0.29606395959854126,
				4.276254177093506
			],
			"min":[
				-4.276254177093506,
				-0.29606395959854126,
				-4.276254177093506
			],
			"type":"VEC3"
		},
		{
			"bufferView":22,
			"componentType":5126,
			"count":375,
			"type":"VEC3"
		},
		{
			"bufferView":23,
			"componentType":5126,
			"count":375,
			"type":"VEC2"
		},
		{
			"bufferView":24,
			"componentType":5126,
			"count":48,
			"max":[
				6.1366963386535645,
				8.678597450256348,
				6.136695861816406
			],
			"min":[
				-6.136695861816406,
				-8.678597450256348,
				-6.13669490814209
			],
			"type":"VEC3"
		},
		{
			"bufferView":25,
			"componentType":5126,
			"count":48,
			"type":"VEC3"
		},
		{
			"bufferView":26,
			"componentType":5126,
			"count":48,
			"type":"VEC2"
		},
		{
			"bufferView":27,
			"componentType":5123,
			"count":48,
			"type":"SCALAR"
		},
		{
			"bufferView":28,
			"componentType":5126,
			"count":1521,
			"max":[
				22.91373062133789,
				20.329408645629883,
				29.496583938598633
			],
			"min":[
				-32.223941802978516,
				-20.329383850097656,
				-29.496789932250977
			],
			"type":"VEC3"
		},
		{
			"bufferView":29,
			"componentType":5126,
			"count":1521,
			"type":"VEC3"
		},
		{
			"bufferView":30,
			"componentType":5126,
			"count":1521,
			"type":"VEC2"
		},
		{
			"bufferView":31,
			"componentType":5123,
			"count":8352,
			"type":"SCALAR"
		},
		{
			"bufferView":32,
			"componentType":5126,
			"count":559,
			"max":[
				4.875766277313232,
				4.875766277313232,
				4.875766277313232
			],
			"min":[
				-4.875766277313232,
				-4.875766277313232,
				-4.875766277313232
			],
			"type":"VEC3"
		},
		{
			"bufferView":33,
			"componentType":5126,
			"count":559,
			"type":"VEC3"
		},
		{
			"bufferView":34,
			"componentType":5126,
			"count":559,
			"type":"VEC2"
		},
		{
			"bufferView":35,
			"componentType":5123,
			"count":2880,
			"type":"SCALAR"
		},
		{
			"bufferView":36,
			"componentType":5126,
			"count":559,
			"max":[
				6.4222588539123535,
				6.4222588539123535,
				6.4222588539123535
			],
			"min":[
				-6.4222588539123535,
				-6.4222588539123535,
				-6.4222588539123535
			],
			"type":"VEC3"
		},
		{
			"bufferView":37,
			"componentType":5126,
			"count":559,
			"type":"VEC3"
		},
		{
			"bufferView":38,
			"componentType":5126,
			"count":559,
			"type":"VEC2"
		},
		{
			"bufferView":39,
			"componentType":5126,
			"count":700,
			"max":[
				25.870773315429688,
				9.233826637268066,
				25.870773315429688
			],
			"min":[
				-25.870773315429688,
				-9.199461936950684,
				-25.870773315429688
			],
			"type":"VEC3"
		},
		{
			"bufferView":40,
			"componentType":5126,
			"count":700,
			"type":"VEC3"
		},
		{
			"bufferView":41,
			"componentType":5126,
			"count":700,
			"type":"VEC2"
		},
		{
			"bufferView":42,
			"componentType":5123,
			"count":3888,
			"type":"SCALAR"
		},
		{
			"bufferView":43,
			"componentType":5126,
			"count":559,
			"max":[
				2.5615522861480713,
				2.5615522861480713,
				2.5615522861480713
			],
			"min":[
				-2.5615522861480713,
				-2.5615522861480713,
				-2.5615522861480713
			],
			"type":"VEC3"
		},
		{
			"bufferView":44,
			"componentType":5126,
			"count":559,
			"type":"VEC3"
		},
		{
			"bufferView":45,
			"componentType":5126,
			"count":559,
			"type":"VEC2"
		},
		{
			"bufferView":46,
			"componentType":5126,
			"count":32431,
			"max":[
				0.16183899343013763,
				1.8946919441223145,
				0.6221410036087036
			],
			"min":[
				-0.16183699667453766,
				0,
				-0.6204580068588257
			],
			"type":"VEC3"
		},
		{
			"bufferView":47,
			"componentType":5126,
			"count":32431,
			"type":"VEC3"
		},
		{
			"bufferView":48,
			"componentType":5126,
			"count":32431,
			"type":"VEC2"
		},
		{
			"bufferView":49,
			"componentType":5123,
			"count":120000,
			"type":"SCALAR"
		}
	],
	"bufferViews":[
		{
			"buffer":0,
			"byteLength":253896,
			"byteOffset":0,
			"target":34962
		},
		{
			"buffer":0,
			"byteLength":253896,
			"byteOffset":253896,
			"target":34962
		},
		{
			"buffer":0,
			"byteLength":223680,
			"byteOffset":507792,
			"target":34963
		},
		{
			"buffer":0,
			"byteLength":223008,
			"byteOffset":731472,
			"target":34962
		},
		{
			"buffer":0,
			"byteLength":223008,
			"byteOffset":954480,
			"target":34962
		},
		{
			"buffer":0,
			"byteLength":198216,
			"byteOffset":1177488,
			"target":34963
		},
		{
			"buffer":0,
			"byteLength":469548,
			"byteOffset":1375704,
			"target":34962
		},
		{
			"buffer":0,
			"byteLength":469548,
			"byteOffset":1845252,
			"target":34962
		},
		{
			"buffer":0,
			"byteLength":414792,
			"byteOffset":2314800,
			"target":34963
		},
		{
			"buffer":0,
			"byteLength":5616,
			"byteOffset":2729592,
			"target":34962
		},
		{
			"buffer":0,
			"byteLength":5616,
			"byteOffset":2735208,
			"target":34962
		},
		{
			"buffer":0,
			"byteLength":3744,
			"byteOffset":2740824,
			"target":34962
		},
		{
			"buffer":0,
			"byteLength":3648,
			"byteOffset":2744568,
			"target":34963
		},
		{
			"buffer":0,
			"byteLength":7200,
			"byteOffset":2748216,
			"target":34962
		},
		{
			"buffer":0,
			"byteLength":7200,
			"byteOffset":2755416,
			"target":34962
		},
		{
			"buffer":0,
			"byteLength":4800,
			"byteOffset":2762616,
			"target":34962
		},
		{
			"buffer":0,
			"byteLength":6552,
			"byteOffset":2767416,
			"target":34963
		},
		{
			"buffer":0,
			"byteLength":4500,
			"byteOffset":2773968,
			"target":34962
		},
		{
			"buffer":0,
			"byteLength":4500,
			"byteOffset":2778468,
			"target":34962
		},
		{
			"buffer":0,
			"byteLength":3000,
			"byteOffset":2782968,
			"target":34962
		},
		{
			"buffer":0,
			"byteLength":4032,
			"byteOffset":2785968,
			"target":34963
		},
		{
			"buffer":0,
			"byteLength":4500,
			"byteOffset":2790000,
			"target":34962
		},
		{
			"buffer":0,
			"byteLength":4500,
			"byteOffset":2794500,
			"target":34962
		},
		{
			"buffer":0,
			"byteLength":3000,
			"byteOffset":2799000,
			"target":34962
		},
		{
			"buffer":0,
			"byteLength":576,
			"byteOffset":2802000,
			"target":34962
		},
		{
			"buffer":0,
			"byteLength":576,
			"byteOffset":2802576,
			"target":34962
		},
		{
			"buffer":0,
			"byteLength":384,
			"byteOffset":2803152,
			"target":34962
		},
		{
			"buffer":0,
			"byteLength":96,
			"byteOffset":2803536,
			"target":34963
		},
		{
			"buffer":0,
			"byteLength":18252,
			"byteOffset":2803632,
			"target":34962
		},
		{
			"buffer":0,
			"byteLength":18252,
			"byteOffset":2821884,
			"target":34962
		},
		{
			"buffer":0,
			"byteLength":12168,
			"byteOffset":2840136,
			"target":34962
		},
		{
			"buffer":0,
			"byteLength":16704,
			"byteOffset":2852304,
			"target":34963
		},
		{
			"buffer":0,
			"byteLength":6708,
			"byteOffset":2869008,
			"target":34962
		},
		{
			"buffer":0,
			"byteLength":6708,
			"byteOffset":2875716,
			"target":34962
		},
		{
			"buffer":0,
			"byteLength":4472,
			"byteOffset":2882424,
			"target":34962
		},
		{
			"buffer":0,
			"byteLength":5760,
			"byteOffset":2886896,
			"target":34963
		},
		{
			"buffer":0,
			"byteLength":6708,
			"byteOffset":2892656,
			"target":34962
		},
		{
			"buffer":0,
			"byteLength":6708,
			"byteOffset":2899364,
			"target":34962
		},
		{
			"buffer":0,
			"byteLength":4472,
			"byteOffset":2906072,
			"target":34962
		},
		{
			"buffer":0,
			"byteLength":8400,
			"byteOffset":2910544,
			"target":34962
		},
		{
			"buffer":0,
			"byteLength":8400,
			"byteOffset":2918944,
			"target":34962
		},
		{
			"buffer":0,
			"byteLength":5600,
			"byteOffset":2927344,
			"target":34962
		},
		{
			"buffer":0,
			"byteLength":7776,
			"byteOffset":2932944,
			"target":34963
		},
		{
			"buffer":0,
			"byteLength":6708,
			"byteOffset":2940720,
			"target":34962
		},
		{
			"buffer":0,
			"byteLength":6708,
			"byteOffset":2947428,
			"target":34962
		},
		{
			"buffer":0,
			"byteLength":4472,
			"byteOffset":2954136,
			"target":34962
		},
		{
			"buffer":0,
			"byteLength":389172,
			"byteOffset":2958608,
			"target":34962
		},
		{
			"buffer":0,
			"byteLength":389172,
			"byteOffset":3347780,
			"target":34962
		},
		{
			"buffer":0,
			"byteLength":259448,
			"byteOffset":3736952,
			"target":34962
		},
		{
			"buffer":0,
			"byteLength":240000,
			"byteOffset":3996400,
			"target":34963
		}
	],
	"buffers":[
		{
			"byteLength":4236400,
			"uri":"m1.bin"
		}
	]
}
