{
	"asset":{
		"generator":"Khronos glTF Blender I/O v4.4.56",
		"version":"2.0"
	},
	"extensionsUsed":[
		"KHR_materials_transmission",
		"KHR_materials_specular"
	],
	"scene":0,
	"scenes":[
		{
			"name":"Scene",
			"nodes":[
				0,
				1,
				2,
				3,
				4,
				5,
				6,
				7,
				8,
				9,
				10,
				11
			]
		}
	],
	"nodes":[
		{
			"mesh":0,
			"name":"Cylinder001",
			"rotation":[
				0.7071068286895752,
				0,
				0,
				0.7071068286895752
			]
		},
		{
			"mesh":1,
			"name":"Gengon001",
			"rotation":[
				0.7071068286895752,
				0,
				0,
				0.7071068286895752
			]
		},
		{
			"mesh":2,
			"name":"model",
			"rotation":[
				0.7071068286895752,
				0,
				0,
				0.7071068286895752
			]
		},
		{
			"mesh":3,
			"name":"model001",
			"rotation":[
				0.7071068286895752,
				0,
				0,
				0.7071068286895752
			]
		},
		{
			"mesh":4,
			"name":"model002",
			"rotation":[
				0.7071068286895752,
				0,
				0,
				0.7071068286895752
			]
		},
		{
			"mesh":5,
			"name":"Sphere001",
			"rotation":[
				0.7071068286895752,
				0,
				0,
				0.7071068286895752
			]
		},
		{
			"mesh":6,
			"name":"TextPlus005",
			"rotation":[
				0.7071068286895752,
				0,
				0,
				0.7071068286895752
			]
		},
		{
			"mesh":7,
			"name":"TextPlus006",
			"rotation":[
				0.7071068286895752,
				0,
				0,
				0.7071068286895752
			]
		},
		{
			"mesh":8,
			"name":"Torus001",
			"rotation":[
				0.7071068286895752,
				0,
				0,
				0.7071068286895752
			]
		},
		{
			"mesh":9,
			"name":"Torus002",
			"rotation":[
				0.7071068286895752,
				0,
				0,
				0.7071068286895752
			]
		},
		{
			"mesh":10,
			"name":"Torus003",
			"rotation":[
				0.7071068286895752,
				0,
				0,
				0.7071068286895752
			]
		},
		{
			"mesh":11,
			"name":"Torus004",
			"rotation":[
				0.7071068286895752,
				0,
				0,
				0.7071068286895752
			]
		}
	],
	"materials":[
		{
			"doubleSided":true,
			"extensions":{
				"KHR_materials_transmission":{
					"transmissionFactor":1
				},
				"KHR_materials_specular":{
					"specularFactor":0.699999988079071
				}
			},
			"name":"wire_088088225",
			"pbrMetallicRoughness":{
				"baseColorFactor":[
					0.3450999855995178,
					0.3450999855995178,
					0.8823999762535095,
					1
				],
				"metallicFactor":0,
				"roughnessFactor":0.8211145401000977
			}
		},
		{
			"doubleSided":true,
			"extensions":{
				"KHR_materials_transmission":{
					"transmissionFactor":1
				},
				"KHR_materials_specular":{
					"specularFactor":0.699999988079071
				}
			},
			"name":"wire_088177027",
			"pbrMetallicRoughness":{
				"baseColorFactor":[
					0.3450999855995178,
					0.694100022315979,
					0.10589999705553055,
					1
				],
				"metallicFactor":0,
				"roughnessFactor":0.8211145401000977
			}
		},
		{
			"doubleSided":true,
			"extensions":{
				"KHR_materials_transmission":{
					"transmissionFactor":1
				},
				"KHR_materials_specular":{
					"specularFactor":0.699999988079071
				}
			},
			"name":"wire_087224198",
			"pbrMetallicRoughness":{
				"baseColorFactor":[
					0.34119999408721924,
					0.8784000277519226,
					0.7764999866485596,
					1
				],
				"metallicFactor":0,
				"roughnessFactor":0.8211145401000977
			}
		},
		{
			"doubleSided":true,
			"extensions":{
				"KHR_materials_transmission":{
					"transmissionFactor":1
				},
				"KHR_materials_specular":{
					"specularFactor":0.699999988079071
				}
			},
			"name":"wire_134006006",
			"pbrMetallicRoughness":{
				"baseColorFactor":[
					0.5254999995231628,
					0.023499999195337296,
					0.023499999195337296,
					1
				],
				"metallicFactor":0,
				"roughnessFactor":0.8211145401000977
			}
		},
		{
			"doubleSided":true,
			"extensions":{
				"KHR_materials_transmission":{
					"transmissionFactor":1
				},
				"KHR_materials_specular":{
					"specularFactor":0.699999988079071
				}
			},
			"name":"wire_177028149",
			"pbrMetallicRoughness":{
				"baseColorFactor":[
					0.694100022315979,
					0.10980000346899033,
					0.5842999815940857,
					1
				],
				"metallicFactor":0,
				"roughnessFactor":0.8211145401000977
			}
		},
		{
			"doubleSided":true,
			"extensions":{
				"KHR_materials_transmission":{
					"transmissionFactor":1
				},
				"KHR_materials_specular":{
					"specularFactor":0.699999988079071
				}
			},
			"name":"wire_228153184",
			"pbrMetallicRoughness":{
				"baseColorFactor":[
					0.89410001039505,
					0.6000000238418579,
					0.7215999960899353,
					1
				],
				"metallicFactor":0,
				"roughnessFactor":0.8211145401000977
			}
		},
		{
			"doubleSided":true,
			"extensions":{
				"KHR_materials_transmission":{
					"transmissionFactor":1
				},
				"KHR_materials_specular":{
					"specularFactor":0.699999988079071
				}
			},
			"name":"wire_028028177",
			"pbrMetallicRoughness":{
				"baseColorFactor":[
					0.10980000346899033,
					0.10980000346899033,
					0.694100022315979,
					1
				],
				"metallicFactor":0,
				"roughnessFactor":0.8211145401000977
			}
		},
		{
			"doubleSided":true,
			"extensions":{
				"KHR_materials_transmission":{
					"transmissionFactor":1
				},
				"KHR_materials_specular":{
					"specularFactor":0.699999988079071
				}
			},
			"name":"wire_087225143",
			"pbrMetallicRoughness":{
				"baseColorFactor":[
					0.34119999408721924,
					0.8823999762535095,
					0.5608000159263611,
					1
				],
				"metallicFactor":0,
				"roughnessFactor":0.8211145401000977
			}
		}
	],
	"meshes":[
		{
			"name":"Cylinder001",
			"primitives":[
				{
					"attributes":{
						"POSITION":0,
						"NORMAL":1,
						"TEXCOORD_0":2
					},
					"indices":3,
					"material":0
				}
			]
		},
		{
			"name":"Gengon001",
			"primitives":[
				{
					"attributes":{
						"POSITION":4,
						"NORMAL":5,
						"TEXCOORD_0":6
					},
					"indices":7,
					"material":1
				}
			]
		},
		{
			"name":"model",
			"primitives":[
				{
					"attributes":{
						"POSITION":8,
						"NORMAL":9,
						"TEXCOORD_0":10
					},
					"indices":11,
					"material":2
				}
			]
		},
		{
			"name":"model001",
			"primitives":[
				{
					"attributes":{
						"POSITION":12,
						"NORMAL":13,
						"TEXCOORD_0":14
					},
					"indices":15,
					"material":3
				}
			]
		},
		{
			"name":"model002",
			"primitives":[
				{
					"attributes":{
						"POSITION":16,
						"NORMAL":17,
						"TEXCOORD_0":18
					},
					"indices":19,
					"material":4
				}
			]
		},
		{
			"name":"Sphere001",
			"primitives":[
				{
					"attributes":{
						"POSITION":20,
						"NORMAL":21,
						"TEXCOORD_0":22
					},
					"indices":23,
					"material":5
				}
			]
		},
		{
			"name":"TextPlus005",
			"primitives":[
				{
					"attributes":{
						"POSITION":24,
						"NORMAL":25
					},
					"indices":26,
					"material":6
				}
			]
		},
		{
			"name":"TextPlus006",
			"primitives":[
				{
					"attributes":{
						"POSITION":27,
						"NORMAL":28
					},
					"indices":29,
					"material":6
				}
			]
		},
		{
			"name":"Torus001",
			"primitives":[
				{
					"attributes":{
						"POSITION":30,
						"NORMAL":31,
						"TEXCOORD_0":32
					},
					"indices":33,
					"material":7
				}
			]
		},
		{
			"name":"Torus002",
			"primitives":[
				{
					"attributes":{
						"POSITION":34,
						"NORMAL":35,
						"TEXCOORD_0":36
					},
					"indices":33,
					"material":7
				}
			]
		},
		{
			"name":"Torus003",
			"primitives":[
				{
					"attributes":{
						"POSITION":37,
						"NORMAL":38,
						"TEXCOORD_0":39
					},
					"indices":33,
					"material":7
				}
			]
		},
		{
			"name":"Torus004",
			"primitives":[
				{
					"attributes":{
						"POSITION":40,
						"NORMAL":41,
						"TEXCOORD_0":42
					},
					"indices":33,
					"material":7
				}
			]
		}
	],
	"accessors":[
		{
			"bufferView":0,
			"componentType":5126,
			"count":35169,
			"max":[
				-10.374799728393555,
				17.76580047607422,
				2.3289999961853027
			],
			"min":[
				-26.845399856567383,
				8.42870044708252,
				-17.13159942626953
			],
			"type":"VEC3"
		},
		{
			"bufferView":1,
			"componentType":5126,
			"count":35169,
			"type":"VEC3"
		},
		{
			"bufferView":2,
			"componentType":5126,
			"count":35169,
			"type":"VEC2"
		},
		{
			"bufferView":3,
			"componentType":5123,
			"count":209484,
			"type":"SCALAR"
		},
		{
			"bufferView":4,
			"componentType":5126,
			"count":5438,
			"max":[
				2.351799964904785,
				19.49570083618164,
				7.071300029754639
			],
			"min":[
				-10.193300247192383,
				4.90369987487793,
				-22.267799377441406
			],
			"type":"VEC3"
		},
		{
			"bufferView":5,
			"componentType":5126,
			"count":5438,
			"type":"VEC3"
		},
		{
			"bufferView":6,
			"componentType":5126,
			"count":5438,
			"type":"VEC2"
		},
		{
			"bufferView":7,
			"componentType":5123,
			"count":28920,
			"type":"SCALAR"
		},
		{
			"bufferView":8,
			"componentType":5126,
			"count":19136,
			"max":[
				-10.522600173950195,
				24.22279930114746,
				-5.97160005569458
			],
			"min":[
				-35.28049850463867,
				2.7641000747680664,
				-22.941200256347656
			],
			"type":"VEC3"
		},
		{
			"bufferView":9,
			"componentType":5126,
			"count":19136,
			"type":"VEC3"
		},
		{
			"bufferView":10,
			"componentType":5126,
			"count":19136,
			"type":"VEC2"
		},
		{
			"bufferView":11,
			"componentType":5123,
			"count":102102,
			"type":"SCALAR"
		},
		{
			"bufferView":12,
			"componentType":5126,
			"count":32431,
			"max":[
				8.3927001953125,
				10.188400268554688,
				-18.153099060058594
			],
			"min":[
				-20.73710060119629,
				3.469599962234497,
				-42.952701568603516
			],
			"type":"VEC3"
		},
		{
			"bufferView":13,
			"componentType":5126,
			"count":32431,
			"type":"VEC3"
		},
		{
			"bufferView":14,
			"componentType":5126,
			"count":32431,
			"type":"VEC2"
		},
		{
			"bufferView":15,
			"componentType":5123,
			"count":120000,
			"type":"SCALAR"
		},
		{
			"bufferView":16,
			"componentType":5126,
			"count":20743,
			"max":[
				22.5718994140625,
				12.433799743652344,
				-27.4143009185791
			],
			"min":[
				-0.9585000276565552,
				2.974400043487549,
				-35.21120071411133
			],
			"type":"VEC3"
		},
		{
			"bufferView":17,
			"componentType":5126,
			"count":20743,
			"type":"VEC3"
		},
		{
			"bufferView":18,
			"componentType":5126,
			"count":20743,
			"type":"VEC2"
		},
		{
			"bufferView":19,
			"componentType":5123,
			"count":111090,
			"type":"SCALAR"
		},
		{
			"bufferView":20,
			"componentType":5126,
			"count":559,
			"max":[
				10.391200065612793,
				7.847499847412109,
				-18.27280044555664
			],
			"min":[
				-0.46070000529289246,
				-3.0044000148773193,
				-29.124799728393555
			],
			"type":"VEC3"
		},
		{
			"bufferView":21,
			"componentType":5126,
			"count":559,
			"type":"VEC3"
		},
		{
			"bufferView":22,
			"componentType":5126,
			"count":559,
			"type":"VEC2"
		},
		{
			"bufferView":23,
			"componentType":5123,
			"count":2880,
			"type":"SCALAR"
		},
		{
			"bufferView":24,
			"componentType":5126,
			"count":560,
			"max":[
				0.8547999858856201,
				17.38789939880371,
				-7.477499961853027
			],
			"min":[
				-8.283100128173828,
				6.966000080108643,
				-8.626999855041504
			],
			"type":"VEC3"
		},
		{
			"bufferView":25,
			"componentType":5126,
			"count":560,
			"type":"VEC3"
		},
		{
			"bufferView":26,
			"componentType":5123,
			"count":3288,
			"type":"SCALAR"
		},
		{
			"bufferView":27,
			"componentType":5126,
			"count":592,
			"max":[
				-1.5354000329971313,
				14.202799797058105,
				-9.976300239562988
			],
			"min":[
				-5.542799949645996,
				9.85890007019043,
				-10.83430004119873
			],
			"type":"VEC3"
		},
		{
			"bufferView":28,
			"componentType":5126,
			"count":592,
			"type":"VEC3"
		},
		{
			"bufferView":29,
			"componentType":5123,
			"count":3504,
			"type":"SCALAR"
		},
		{
			"bufferView":30,
			"componentType":5126,
			"count":2108,
			"max":[
				-13.283900260925293,
				12.209099769592285,
				-15.451800346374512
			],
			"min":[
				-15.111599922180176,
				5.17579984664917,
				-22.347999572753906
			],
			"type":"VEC3"
		},
		{
			"bufferView":31,
			"componentType":5126,
			"count":2108,
			"type":"VEC3"
		},
		{
			"bufferView":32,
			"componentType":5126,
			"count":2108,
			"type":"VEC2"
		},
		{
			"bufferView":33,
			"componentType":5123,
			"count":12060,
			"type":"SCALAR"
		},
		{
			"bufferView":34,
			"componentType":5126,
			"count":2108,
			"max":[
				3.9154000282287598,
				11.138299942016602,
				-25.319400787353516
			],
			"min":[
				2.933300018310547,
				1.9483000040054321,
				-34.50529861450195
			],
			"type":"VEC3"
		},
		{
			"bufferView":35,
			"componentType":5126,
			"count":2108,
			"type":"VEC3"
		},
		{
			"bufferView":36,
			"componentType":5126,
			"count":2108,
			"type":"VEC2"
		},
		{
			"bufferView":37,
			"componentType":5126,
			"count":2108,
			"max":[
				-2.0030999183654785,
				14.061400413513184,
				-19.628999710083008
			],
			"min":[
				-6.753300189971924,
				6.140500068664551,
				-26.65760040283203
			],
			"type":"VEC3"
		},
		{
			"bufferView":38,
			"componentType":5126,
			"count":2108,
			"type":"VEC3"
		},
		{
			"bufferView":39,
			"componentType":5126,
			"count":2108,
			"type":"VEC2"
		},
		{
			"bufferView":40,
			"componentType":5126,
			"count":2108,
			"max":[
				-12.846400260925293,
				14.567899703979492,
				-14.678000450134277
			],
			"min":[
				-16.187400817871094,
				11.465200424194336,
				-17.31060028076172
			],
			"type":"VEC3"
		},
		{
			"bufferView":41,
			"componentType":5126,
			"count":2108,
			"type":"VEC3"
		},
		{
			"bufferView":42,
			"componentType":5126,
			"count":2108,
			"type":"VEC2"
		}
	],
	"bufferViews":[
		{
			"buffer":0,
			"byteLength":422028,
			"byteOffset":0,
			"target":34962
		},
		{
			"buffer":0,
			"byteLength":422028,
			"byteOffset":422028,
			"target":34962
		},
		{
			"buffer":0,
			"byteLength":281352,
			"byteOffset":844056,
			"target":34962
		},
		{
			"buffer":0,
			"byteLength":418968,
			"byteOffset":1125408,
			"target":34963
		},
		{
			"buffer":0,
			"byteLength":65256,
			"byteOffset":1544376,
			"target":34962
		},
		{
			"buffer":0,
			"byteLength":65256,
			"byteOffset":1609632,
			"target":34962
		},
		{
			"buffer":0,
			"byteLength":43504,
			"byteOffset":1674888,
			"target":34962
		},
		{
			"buffer":0,
			"byteLength":57840,
			"byteOffset":1718392,
			"target":34963
		},
		{
			"buffer":0,
			"byteLength":229632,
			"byteOffset":1776232,
			"target":34962
		},
		{
			"buffer":0,
			"byteLength":229632,
			"byteOffset":2005864,
			"target":34962
		},
		{
			"buffer":0,
			"byteLength":153088,
			"byteOffset":2235496,
			"target":34962
		},
		{
			"buffer":0,
			"byteLength":204204,
			"byteOffset":2388584,
			"target":34963
		},
		{
			"buffer":0,
			"byteLength":389172,
			"byteOffset":2592788,
			"target":34962
		},
		{
			"buffer":0,
			"byteLength":389172,
			"byteOffset":2981960,
			"target":34962
		},
		{
			"buffer":0,
			"byteLength":259448,
			"byteOffset":3371132,
			"target":34962
		},
		{
			"buffer":0,
			"byteLength":240000,
			"byteOffset":3630580,
			"target":34963
		},
		{
			"buffer":0,
			"byteLength":248916,
			"byteOffset":3870580,
			"target":34962
		},
		{
			"buffer":0,
			"byteLength":248916,
			"byteOffset":4119496,
			"target":34962
		},
		{
			"buffer":0,
			"byteLength":165944,
			"byteOffset":4368412,
			"target":34962
		},
		{
			"buffer":0,
			"byteLength":222180,
			"byteOffset":4534356,
			"target":34963
		},
		{
			"buffer":0,
			"byteLength":6708,
			"byteOffset":4756536,
			"target":34962
		},
		{
			"buffer":0,
			"byteLength":6708,
			"byteOffset":4763244,
			"target":34962
		},
		{
			"buffer":0,
			"byteLength":4472,
			"byteOffset":4769952,
			"target":34962
		},
		{
			"buffer":0,
			"byteLength":5760,
			"byteOffset":4774424,
			"target":34963
		},
		{
			"buffer":0,
			"byteLength":6720,
			"byteOffset":4780184,
			"target":34962
		},
		{
			"buffer":0,
			"byteLength":6720,
			"byteOffset":4786904,
			"target":34962
		},
		{
			"buffer":0,
			"byteLength":6576,
			"byteOffset":4793624,
			"target":34963
		},
		{
			"buffer":0,
			"byteLength":7104,
			"byteOffset":4800200,
			"target":34962
		},
		{
			"buffer":0,
			"byteLength":7104,
			"byteOffset":4807304,
			"target":34962
		},
		{
			"buffer":0,
			"byteLength":7008,
			"byteOffset":4814408,
			"target":34963
		},
		{
			"buffer":0,
			"byteLength":25296,
			"byteOffset":4821416,
			"target":34962
		},
		{
			"buffer":0,
			"byteLength":25296,
			"byteOffset":4846712,
			"target":34962
		},
		{
			"buffer":0,
			"byteLength":16864,
			"byteOffset":4872008,
			"target":34962
		},
		{
			"buffer":0,
			"byteLength":24120,
			"byteOffset":4888872,
			"target":34963
		},
		{
			"buffer":0,
			"byteLength":25296,
			"byteOffset":4912992,
			"target":34962
		},
		{
			"buffer":0,
			"byteLength":25296,
			"byteOffset":4938288,
			"target":34962
		},
		{
			"buffer":0,
			"byteLength":16864,
			"byteOffset":4963584,
			"target":34962
		},
		{
			"buffer":0,
			"byteLength":25296,
			"byteOffset":4980448,
			"target":34962
		},
		{
			"buffer":0,
			"byteLength":25296,
			"byteOffset":5005744,
			"target":34962
		},
		{
			"buffer":0,
			"byteLength":16864,
			"byteOffset":5031040,
			"target":34962
		},
		{
			"buffer":0,
			"byteLength":25296,
			"byteOffset":5047904,
			"target":34962
		},
		{
			"buffer":0,
			"byteLength":25296,
			"byteOffset":5073200,
			"target":34962
		},
		{
			"buffer":0,
			"byteLength":16864,
			"byteOffset":5098496,
			"target":34962
		}
	],
	"buffers":[
		{
			"byteLength":5115360,
			"uri":"m3.bin"
		}
	]
}
